<svg xmlns="http://www.w3.org/2000/svg" xmlns:xlink="http://www.w3.org/1999/xlink" width="253.279" height="192.28" viewBox="0 0 253.279 192.28"><defs><style>.a{fill:url(#a);}.b{fill:url(#b);}.c{fill:url(#c);}.d{fill:#002d4e;}.e{fill:#f47b0e;}.f{fill:url(#d);}.g{fill:url(#e);}.h{fill:url(#f);}.i{fill:url(#g);}.j{fill:url(#i);}.k{fill:url(#j);}.l{fill:url(#l);}</style><linearGradient id="a" y1="0.5" x2="1" y2="0.5" gradientUnits="objectBoundingBox"><stop offset="0" stop-color="#fcb60b"/><stop offset="0.313" stop-color="#f38a1a"/><stop offset="1" stop-color="#ea3718"/></linearGradient><linearGradient id="b" x1="0" y1="0.499" x2="1" y2="0.499" xlink:href="#a"/><linearGradient id="c" x1="0" y1="0.504" x2="1.001" y2="0.504" xlink:href="#a"/><linearGradient id="d" x1="1" y1="0.5" x2="0" y2="0.5" gradientUnits="objectBoundingBox"><stop offset="0" stop-color="#fcb60b"/><stop offset="0.498" stop-color="#f38a1a"/><stop offset="1" stop-color="#e84f20"/></linearGradient><linearGradient id="e" x1="1" y1="0.5" x2="0" y2="0.5" gradientUnits="objectBoundingBox"><stop offset="0.336" stop-color="#f38a1a"/><stop offset="1" stop-color="#ea3718"/></linearGradient><linearGradient id="f" y1="0.5" x2="1" y2="0.5" gradientUnits="objectBoundingBox"><stop offset="0" stop-color="#0081c0"/><stop offset="1" stop-color="#00305e"/></linearGradient><linearGradient id="g" y1="0.5" x2="1" y2="0.5" gradientUnits="objectBoundingBox"><stop offset="0" stop-color="#fcb60b"/><stop offset="0.291" stop-color="#f38a1a"/><stop offset="1" stop-color="#ea3718"/></linearGradient><linearGradient id="i" y1="0.5" x2="1" y2="0.5" gradientUnits="objectBoundingBox"><stop offset="0" stop-color="#00a9ed"/><stop offset="1" stop-color="#004972"/></linearGradient><linearGradient id="j" y1="0.5" x2="1" y2="0.5" gradientUnits="objectBoundingBox"><stop offset="0" stop-color="#0081c0"/><stop offset="1" stop-color="#003b66"/></linearGradient><linearGradient id="l" y1="0.5" x2="1" y2="0.5" gradientUnits="objectBoundingBox"><stop offset="0" stop-color="#00a05a"/><stop offset="0.498" stop-color="#007c74"/><stop offset="1" stop-color="#005a58"/></linearGradient></defs><g transform="translate(0 0)"><g transform="translate(58.947 71.624)"><path class="a" d="M189.471,355.912a33.277,33.277,0,0,1-4.238-.852,25.331,25.331,0,0,1-8-3.682,21.9,21.9,0,0,1-8.616-12.344c.79-3.866,2.112-7.284,3.7-8.982a11.98,11.98,0,0,1,4.681-3.1,11.3,11.3,0,0,1,1.354-.4,10.9,10.9,0,0,1,2.227-.275,9.576,9.576,0,0,1,1.1.052l.091.01a3.43,3.43,0,0,1,2.554,1.124c.981,1.323.077,2.809-.358,3.526-.049.08-.094.15-.126.209-.33.665-.661,1.385-.978,2.13-.459,1.082-.9,2.241-1.329,3.514-.1.306-.205.623-.309.947s-.188.623-.272.943a23.831,23.831,0,0,0-.606,7.266c.146,2.826.759,4.806,1.925,6.233a8.091,8.091,0,0,0,.72.776c.063.063.129.122.191.178.08.073.157.139.237.209.045.038.094.073.139.111.063.052.126.1.188.146a10.673,10.673,0,0,0,2.324,1.329c.087.035.171.069.258.1.181.073.362.139.54.2.087.031.177.059.264.087.115.039.226.073.338.1.15.045.3.084.442.122C188.469,355.738,189,355.84,189.471,355.912Z" transform="translate(-168.612 -326.279)"/><path class="b" d="M212.353,387.05c.021,0,.045,0,.066.007v.007c-.13-.015-.257-.036-.387-.052C212.142,387.026,212.251,387.039,212.353,387.05Z" transform="translate(-190.811 -357.33)"/><path class="c" d="M211.69,386.966l.167.022Z" transform="translate(-190.636 -357.306)"/></g><path class="d" d="M101.438,33.087v-.141c0-10.771,7.673-19.641,18.655-19.641,12.6,0,18.162,10.348,18.162,18.162a4.881,4.881,0,0,1-5,5.139h-21.19C113.124,41.463,116.5,44,121.29,44a12.347,12.347,0,0,0,7.6-2.535,3.994,3.994,0,0,1,2.6-.844,4.09,4.09,0,0,1,4.154,4.224,4.2,4.2,0,0,1-1.408,3.168,19.552,19.552,0,0,1-13.094,4.576C109.815,52.587,101.438,44.632,101.438,33.087Zm10.489-3.168h16.121c-.633-4.787-3.449-8.026-7.954-8.026C115.658,21.893,112.772,25.061,111.927,29.919Zm-39.7,18.233a4.265,4.265,0,0,1-2.041-3.661,4.149,4.149,0,0,1,4.224-4.224,4.1,4.1,0,0,1,2.112.563,19.871,19.871,0,0,0,10.208,3.38c3.1,0,4.505-1.127,4.505-2.816v-.141c0-2.323-3.661-3.1-7.814-4.365-5.279-1.548-11.263-4.012-11.263-11.333v-.142c0-7.673,6.2-11.967,13.8-11.967a26.529,26.529,0,0,1,11.686,2.886,4.359,4.359,0,0,1,2.534,4.012,4.207,4.207,0,0,1-4.294,4.224,3.912,3.912,0,0,1-1.971-.493,20.122,20.122,0,0,0-8.166-2.394c-2.6,0-3.942,1.126-3.942,2.6v.141c0,2.113,3.591,3.1,7.673,4.506,5.28,1.76,11.4,4.294,11.4,11.193v.141c0,8.378-6.265,12.178-14.431,12.178A26.3,26.3,0,0,1,72.224,48.152ZM39.563,52.445c-2.6,0-4.787-1.478-5.772-4.576L27.807,28.862,21.753,47.87c-.985,3.1-3.167,4.576-5.773,4.576h-.352c-2.6,0-4.787-1.478-5.913-4.787L.494,21.048A8.992,8.992,0,0,1,0,18.444a4.934,4.934,0,0,1,5.139-4.857c2.675,0,4.435,1.689,5.209,4.153l5.772,19.148L22.035,17.81a5.646,5.646,0,0,1,5.491-4.294h.633A5.647,5.647,0,0,1,33.65,17.81l5.983,19.148L45.547,17.67c.7-2.253,2.323-4.083,5.139-4.083a4.87,4.87,0,0,1,5,4.928,9.431,9.431,0,0,1-.352,2.182l-9.5,26.963c-1.126,3.308-3.309,4.787-5.913,4.787Zm18.161-5.632V18.936a5.35,5.35,0,0,1,10.7,0V46.814a5.35,5.35,0,1,1-10.7,0ZM57.091,5.138V5c0-3.1,2.6-5,5.983-5s5.983,1.9,5.983,5v.14c0,3.1-2.6,5.069-5.983,5.069S57.091,8.236,57.091,5.138Z" transform="translate(0 128.852)"/><path class="e" d="M0,44.772V5.632a5.35,5.35,0,0,1,10.7,0v.493A13.856,13.856,0,0,1,22.457,0c8.8,0,17.177,6.9,17.177,19.5v.141c0,12.6-8.236,19.5-17.177,19.5A14.491,14.491,0,0,1,10.7,33.509V44.772a5.35,5.35,0,1,1-10.7,0ZM10.56,19.5v.141c0,6.265,4.154,10.419,9.151,10.419s9.222-4.083,9.222-10.419V19.5c0-6.265-4.224-10.419-9.222-10.419S10.56,13.235,10.56,19.5ZM79.9,48.926a4.632,4.632,0,0,1-3.379-4.436,4.268,4.268,0,0,1,4.224-4.365,5.04,5.04,0,0,1,1.759.282,7.006,7.006,0,0,0,2.253.422c1.9,0,2.816-.352,3.8-2.253l.352-.845L76.025,7.884a7.8,7.8,0,0,1-.563-2.464A5.07,5.07,0,0,1,80.742.282c2.675,0,4.224,1.478,5.139,4.012l8.166,21.964,7.885-21.893c.845-2.253,2.393-4.083,5.139-4.083a4.973,4.973,0,0,1,5.068,4.928,8.084,8.084,0,0,1-.493,2.534L98.482,39.352c-3.168,7.673-6.336,10.56-12.742,10.56A16.1,16.1,0,0,1,79.9,48.926ZM39.983,27.6v-.141c0-8.236,6.265-12.038,15.206-12.038a26.805,26.805,0,0,1,9.222,1.549v-.633c0-4.436-2.745-6.9-8.1-6.9a24.551,24.551,0,0,0-7.392,1.056,4.531,4.531,0,0,1-1.549.282A4.358,4.358,0,0,1,42.94,6.406a4.435,4.435,0,0,1,2.886-4.153A32.84,32.84,0,0,1,57.864.282c5.843,0,10.067,1.548,12.741,4.224,2.816,2.816,4.083,6.969,4.083,12.038V33.721a5.138,5.138,0,0,1-5.209,5.138c-3.1,0-5.139-2.183-5.139-4.435v-.07a14.508,14.508,0,0,1-11.4,4.787C45.826,39.141,39.983,35.057,39.983,27.6Zm10.349-.563v.141c0,2.887,2.393,4.577,5.843,4.577,5,0,8.377-2.747,8.377-6.618v-1.9a16.584,16.584,0,0,0-6.828-1.408C53.147,21.823,50.332,23.653,50.332,27.032Z" transform="translate(141.14 142.157)"/><g transform="translate(71.509 0)"><path class="f" d="M194.417,202.837c-.066.807-.1,1.632-.1,2.464v.007c0,.1,0,.2,0,.3a14.106,14.106,0,0,1,.268-2.4C194.528,203.085,194.472,202.963,194.417,202.837Zm11.439-22.645a41.349,41.349,0,0,1,5.505.16c.192.018.383.038.574.059.623-.24,1.253-.466,1.9-.675A52.517,52.517,0,0,0,205.856,180.193Z" transform="translate(-194.316 -179.73)"/><path class="g" d="M319.352,252.867v.039c0,.835-.035,1.66-.1,2.471a25.154,25.154,0,0,1-3.622,11.415,23.041,23.041,0,0,1-5.561,5.979c-.062.059-.125.115-.192.171a26.439,26.439,0,0,1-6.1,3.971,9.736,9.736,0,0,0,2.384-2.509,10.2,10.2,0,0,0,.957-1.872v-.007a16.505,16.505,0,0,0-.049-7.127A38.973,38.973,0,0,0,304.207,257a70.615,70.615,0,0,0-10.931-16.085c-1.771-2.026-3.518-3.877-5.126-5.523-2.054-2.081-3.658-3.64-5.2-5.05-.282-.258-.567-.515-.856-.78-12.313-11.091-31.693-25.314-55.514-31.794a72.306,72.306,0,0,0-12.093-2.349,35.458,35.458,0,0,0-10.639.466c-2.105.453-5.958,1.705-8.094,4.99a9.988,9.988,0,0,0-.957,1.872v0c-.039.153-.07.3-.1.456-.059-.122-.115-.243-.171-.369a25.11,25.11,0,0,1,3.623-11.422,22.939,22.939,0,0,1,5.561-5.979c.063-.059.126-.115.188-.171a27.067,27.067,0,0,1,8.112-4.84l.035-.014c.623-.24,1.253-.466,1.9-.675a71.085,71.085,0,0,1,8.537.678C247.1,183.8,268.435,196.883,282,207.264q4.255,3.252,8.13,6.647a134.458,134.458,0,0,1,11.6,11.411,112.391,112.391,0,0,1,8.526,10.712A78.324,78.324,0,0,1,319.352,252.867Z" transform="translate(-194.421 -179.737)"/></g><g transform="translate(58.094 1.67)"><path class="h" d="M287.585,227.063a82.177,82.177,0,0,1-3.97,8.231q-2.042,3.706-4.475,7.367A129.41,129.41,0,0,1,260.353,264.7a152.837,152.837,0,0,1-11.906,10.224A130.164,130.164,0,0,1,231.7,285.96a98.864,98.864,0,0,1-23.717,9.459A58.339,58.339,0,0,1,194,297.285a38.846,38.846,0,0,1-7.057-.616q-1.352-.25-2.642-.6a25.317,25.317,0,0,1-8-3.682,21.841,21.841,0,0,1-8.206-10.99,23.485,23.485,0,0,1-.9-3.584,34.8,34.8,0,0,1,.487-12.038,21.907,21.907,0,0,0,8.617,12.344,25.317,25.317,0,0,0,8,3.682c.2.056.407.108.613.16.24.059.483.118.727.171.09.021.177.042.268.059.209.045.418.09.627.129.111.024.226.045.341.066.3.056.6.108.9.154q.381.062.762.115s0,0,.007,0l.028.007.16.021a.96.96,0,0,1,.1.014.488.488,0,0,1,.07.007c.045.007.09.014.132.018l.188.021c.021,0,.045,0,.066.007.529.052,1.062.09,1.594.108.376.014.748.02,1.124.02.247,0,.494,0,.745-.014.205,0,.407-.01.609-.021.153,0,.31-.014.463-.024.453-.028.905-.063,1.357-.111.132-.01.264-.024.4-.041q1-.11,1.991-.279c.188-.031.376-.062.56-.1.2-.035.4-.073.606-.111.3-.059.606-.122.905-.188,1.43-.306,2.822-.675,4.155-1.076l.717-.219.129-.042c.279-.087.557-.174.828-.264.4-.128.783-.261,1.162-.393.341-.119.678-.241,1.006-.359.824-.3,1.607-.6,2.339-.88q2.7-1.055,5.29-2.245a113.71,113.71,0,0,0,16.885-9.623,147.1,147.1,0,0,0,26.615-23.772c1.291-1.458,2.621-3.056,4.309-5.185,1.538-1.952,3.222-4.18,4.882-6.619a62.545,62.545,0,0,0,8.035-15.657c.209-.64.4-1.284.571-1.931a.025.025,0,0,0,0-.017,33.688,33.688,0,0,0,.985-5.29,17.516,17.516,0,0,0,.07-2.655,12.763,12.763,0,0,0-1.388-5.147c-.07-.136-.143-.271-.223-.407a9.167,9.167,0,0,0-4.35-4.033,14.131,14.131,0,0,0-6.264-.7,38.86,38.86,0,0,1-7.68-.48,25.535,25.535,0,0,1-5.718-1.368c-.052-.021-4.841-1.984-5.46-4.162a2.108,2.108,0,0,1,.337-1.872,1.685,1.685,0,0,1,.835-.6c.039-.021.083-.042.122-.063a3.569,3.569,0,0,1,.372-.171c.306-.111.605-.223.912-.327.64-.23,1.291-.449,1.928-.658a57.2,57.2,0,0,1,7.214-1.879,37.568,37.568,0,0,1,14.091-.153c.87.164,1.726.362,2.558.6a21.866,21.866,0,0,1,16.21,16.893,27.668,27.668,0,0,1,.554,3.285v0C292.488,212.273,290.389,220.271,287.585,227.063Z" transform="translate(-166.867 -183.147)"/></g><g transform="translate(137.673 2.415)"><path class="i" d="M329.78,190.243a2.11,2.11,0,0,1,.338-1.872,1.684,1.684,0,0,1,.835-.6c.038-.021.084-.042.122-.063a3.8,3.8,0,0,1,.372-.171c.306-.111.606-.222.912-.327.64-.23,1.291-.449,1.928-.658a57.284,57.284,0,0,1,7.214-1.879c.609.129,1.211.279,1.8.449a23.234,23.234,0,0,1,11.919,7.656,22.643,22.643,0,0,1,4.034,8.206,9.165,9.165,0,0,0-4.35-4.033,14.132,14.132,0,0,0-6.264-.7,38.859,38.859,0,0,1-7.68-.48,25.513,25.513,0,0,1-5.718-1.368C335.188,194.384,330.4,192.421,329.78,190.243Z" transform="translate(-329.694 -184.671)"/></g><g transform="translate(88.83 23.95)"><path class="a" d="M260.608,238.063c-.135,1.277-1.3,2.123-2.7,3.017-.146.094-.271.171-.345.226-1.155.881-2.314,1.782-3.449,2.683-2.328,1.848-4.65,3.765-6.9,5.7-2.046,1.754-4.085,3.574-6.066,5.4-.254.233-.539.529-.842.842-1.34,1.378-3.149,3.247-5.53,3.247-.111,0-.226,0-.341-.01a5.459,5.459,0,0,1-4.35-2.916c-.786-1.73,0-3.484.525-4.642l.052-.122c2.763-6.149,7.2-15.027,13.837-21.1a5.305,5.305,0,0,1,3.334-1.653c.063,0,.115,0,.174,0a4.15,4.15,0,0,1,1.768.421,8.915,8.915,0,0,1,1.312.8c.135.094.268.188.4.275.414.268.852.515,1.315.776.425.237.86.484,1.3.759a32.046,32.046,0,0,1,5.9,4.57A2.111,2.111,0,0,1,260.608,238.063Z" transform="translate(-229.756 -228.733)"/></g><g transform="translate(56.637 0)"><path class="j" d="M194.417,202.837c-.066.807-.1,1.632-.1,2.464v.007c0,.1,0,.2,0,.3a14.106,14.106,0,0,1,.268-2.4C194.528,203.085,194.472,202.963,194.417,202.837Zm11.439-22.645a41.349,41.349,0,0,1,5.505.16c.192.018.383.038.574.059.623-.24,1.253-.466,1.9-.675A52.517,52.517,0,0,0,205.856,180.193Z" transform="translate(-179.444 -179.73)"/><path class="k" d="M376.056,344.461v.007a26,26,0,0,1-3.72,13.885,23.053,23.053,0,0,1-5.561,5.979c-.062.059-.125.115-.192.171a27.056,27.056,0,0,1-8.109,4.837c-.633.247-1.277.48-1.938.692a45.118,45.118,0,0,1-13.934,2.012,69.729,69.729,0,0,1-9.479-.686,111.03,111.03,0,0,1-33.6-10.642,130.158,130.158,0,0,0,16.746-11.038,111.775,111.775,0,0,0,12.758,4.329c4.705,1.28,11.209,2.774,17.633,2.5a29.806,29.806,0,0,0,5.1-.62A16.1,16.1,0,0,0,356,354.349a11.728,11.728,0,0,0,1.472-.94,26.425,26.425,0,0,0,6.1-3.971c.066-.055.128-.111.191-.17a23.039,23.039,0,0,0,5.561-5.979,25.147,25.147,0,0,0,3.623-11.414c.063-.811.1-1.636.1-2.471v-.038a45.545,45.545,0,0,1,2.916,12.542q.089,1.117.1,2.241v.007C376.056,344.256,376.056,344.361,376.056,344.461Z" transform="translate(-233.234 -256.233)"/><path class="h" d="M230.623,265.592a113.722,113.722,0,0,1-16.885,9.623c-3.473-2.29-6.647-4.576-9.48-6.748A131.47,131.47,0,0,1,176.01,239.7c-5.519-7.886-12.1-19.819-12.124-31.9v-.039a26.005,26.005,0,0,1,3.724-13.885,22.984,22.984,0,0,1,5.557-5.979l.192-.171a26.543,26.543,0,0,1,6.1-3.978q.977-.464,2.012-.863a38.544,38.544,0,0,1,8.829-2.238,41.348,41.348,0,0,1,5.506.16c.191.017.383.038.574.059l-.035.014a27.074,27.074,0,0,0-8.112,4.841c-.063.056-.125.111-.188.171a22.918,22.918,0,0,0-5.561,5.979,25.107,25.107,0,0,0-3.622,11.422c-.066.807-.1,1.632-.1,2.464v.007c0,.1,0,.2,0,.3v.007a17.165,17.165,0,0,0,.1,2.234,19.932,19.932,0,0,0,.32,2.029c2.558,12.128,12.027,22.93,18.928,30,2.05,2.081,3.654,3.64,5.2,5.05A160.8,160.8,0,0,0,230.623,265.592Z" transform="translate(-163.886 -180.183)"/></g><g transform="translate(112.057 91.827)"><path class="l" d="M277.281,368.069c.282-.15.56-.3.839-.452-.143.08-.282.156-.425.233Z" transform="translate(-277.281 -367.617)"/></g><g transform="translate(112.057 91.827)"><path class="l" d="M277.281,368.069c.282-.15.56-.3.839-.452-.143.08-.282.156-.425.233Z" transform="translate(-277.281 -367.617)"/></g></g></svg>