<svg xmlns="http://www.w3.org/2000/svg" width="16.036" height="9.366" viewBox="0 0 16.036 9.366"><path d="M101.165,154.908c-.79.834-1.585,1.669-2.375,2.5q-1.9,2-3.794,3.99c-.29.309-.584.613-.874.923h1.389c-.79-.834-1.585-1.669-2.375-2.5q-1.9-1.995-3.794-3.99c-.29-.309-.584-.613-.874-.923a.982.982,0,0,0-1.389,1.389c.79.834,1.585,1.669,2.375,2.5q1.9,1.995,3.794,3.99c.29.309.584.613.874.923a.992.992,0,0,0,1.389,0c.79-.834,1.585-1.669,2.375-2.5q1.9-2,3.794-3.99c.29-.309.584-.613.874-.923a.982.982,0,0,0-1.389-1.389Z" transform="translate(-86.8 -154.625)" fill="#97a3b5"/></svg>