<svg xmlns="http://www.w3.org/2000/svg" width="35" height="35.236" viewBox="0 0 35 35.236"><defs><style>.a,.c{fill:#fff;}.b,.c{stroke:none;}</style></defs><g transform="translate(0 0.118)"><g class="a" transform="translate(-0.021 31.099) rotate(-45)"><path class="b" d="M 41.63747024536133 4.322291851043701 L 41.63134002685547 4.322281837463379 L 2.593361139297485 4.174801826477051 C 1.724451184272766 4.171511650085449 1.01487123966217 3.461931705474854 1.011581182479858 2.593021869659424 C 1.010011196136475 2.176691770553589 1.169981241226196 1.785951852798462 1.462021231651306 1.492801785469055 C 1.754081249237061 1.199641823768616 2.144111156463623 1.038191795349121 2.560271263122559 1.038191795349121 L 2.566401243209839 1.038201808929443 L 41.6043815612793 1.185681819915771 C 42.47328948974609 1.188971877098083 43.1828727722168 1.898551821708679 43.18616104125977 2.767461776733398 C 43.1877326965332 3.183791875839233 43.02775955200195 3.57453179359436 42.73572158813477 3.867681741714478 C 42.44366073608398 4.160841941833496 42.05363082885742 4.322291851043701 41.63747024536133 4.322291851043701 Z"/><path class="c" d="M 2.560081481933594 2.038191795349121 L 2.560138702392578 2.0381920337677 C 2.370105743408203 2.038234710693359 2.243331909179688 2.125429630279541 2.17047119140625 2.198571920394897 C 2.097579956054688 2.271731853485107 2.010860443115234 2.398891925811768 2.011581420898438 2.589241743087769 C 2.012790679931641 2.910911798477173 2.275470733642578 3.17359185218811 2.597141265869141 3.174801826477051 L 41.63747024536133 3.322291851043701 C 41.82759094238281 3.322291851043701 41.95439147949219 3.235071897506714 42.02728271484375 3.161911725997925 C 42.10016250610352 3.088751792907715 42.18688201904297 2.961591720581055 42.18616104125977 2.771241903305054 C 42.18495178222656 2.449571847915649 41.92227172851562 2.186891794204712 41.60060119628906 2.185681819915771 L 2.560081481933594 2.038191795349121 M 2.560256958007812 0.0381932258605957 C 2.563632965087891 0.0381932258605957 2.566795349121094 0.03819894790649414 2.570171356201172 0.03821182250976562 L 41.60816192626953 0.1856918334960938 C 43.02659225463867 0.1910519599914551 44.18078994750977 1.34525203704834 44.18614959716797 2.763681888580322 C 44.19149780273438 4.178735256195068 43.05122756958008 5.322290420532227 41.63747406005859 5.322290420532227 C 41.63410186767578 5.322290420532227 41.63093566894531 5.322284698486328 41.62755966186523 5.322271823883057 L 2.589580535888672 5.174791812896729 C 1.171150207519531 5.169431686401367 0.0169525146484375 4.015232086181641 0.01159286499023438 2.5968017578125 C 0.006244659423828125 1.181748390197754 1.146514892578125 0.0381932258605957 2.560256958007812 0.0381932258605957 Z"/></g><g class="a" transform="translate(3.646 0.266) rotate(45)"><path class="b" d="M 2.537224769592285 4.12514591217041 C 2.121014833450317 4.12514591217041 1.730984687805176 3.963706016540527 1.438954710960388 3.670576095581055 C 1.146924734115601 3.377446174621582 0.9869647622108459 2.986696004867554 0.9885347485542297 2.570306062698364 C 0.991824746131897 1.701406121253967 1.701404690742493 0.9918261170387268 2.570314645767212 0.9885361194610596 L 41.60830307006836 0.8410561084747314 L 41.61443328857422 0.8410460948944092 C 42.03064346313477 0.8410460948944092 42.42068481445312 1.002486109733582 42.71270370483398 1.295616149902344 C 43.00472640991211 1.588736176490784 43.1646842956543 1.979486107826233 43.16311645507812 2.395876169204712 C 43.15982437133789 3.264786005020142 42.45024490356445 3.974366188049316 41.58133316040039 3.977656126022339 L 2.543354749679565 4.125135898590088 L 2.537224769592285 4.12514591217041 Z"/><path class="c" d="M 41.61443328857422 1.841046094894409 L 41.61208343505859 1.841056108474731 L 2.574092864990234 1.98853611946106 C 2.252426147460938 1.98974609375 1.98974609375 2.252426147460938 1.988533020019531 2.574096202850342 C 1.987815856933594 2.764496088027954 2.074516296386719 2.891656160354614 2.147384643554688 2.96479606628418 C 2.220252990722656 3.037946224212646 2.3470458984375 3.125146150588989 2.539573669433594 3.125136137008667 L 41.57755279541016 2.977656126022339 C 41.89922332763672 2.976446151733398 42.16190338134766 2.713766098022461 42.16311645507812 2.392106056213379 C 42.16383361816406 2.201686143875122 42.07712554931641 2.074526071548462 42.00426483154297 2.001376152038574 C 41.931396484375 1.92823600769043 41.80461502075195 1.841046094894409 41.61443328857422 1.841046094894409 M 41.61443710327148 -0.1589527130126953 C 43.0283088684082 -0.1589527130126953 44.16844177246094 0.984515905380249 44.16310501098633 2.399656057357788 C 44.15774536132812 3.81808614730835 43.00354385375977 4.972286224365234 41.58511352539062 4.977646350860596 L 2.547134399414062 5.125125885009766 C 2.543846130371094 5.125138759613037 2.54052734375 5.125144958496094 2.537239074707031 5.125144958496094 C 1.123367309570312 5.125144958496094 -0.01680374145507812 3.981676340103149 -0.01145553588867188 2.56653618812561 C -0.00609588623046875 1.148106098175049 1.148105621337891 -0.006093978881835938 2.566535949707031 -0.01145410537719727 L 41.60452651977539 -0.1589336395263672 C 41.60781478881836 -0.1589465141296387 41.61115264892578 -0.1589527130126953 41.61443710327148 -0.1589527130126953 Z"/></g></g></svg>