<svg xmlns="http://www.w3.org/2000/svg" width="53.119" height="46.871" viewBox="0 0 53.119 46.871"><defs><style>.a{fill:#fff;}</style></defs><path class="a" d="M288.763,347.773H264.071a.778.778,0,0,0,0,1.556h24.692a.778.778,0,1,0,0-1.556Zm0,0" transform="translate(-242.641 -331.066)"/><path class="a" d="M288.763,390.773H264.071a.778.778,0,0,0,0,1.556h24.692a.778.778,0,1,0,0-1.556Zm0,0" transform="translate(-242.641 -368.118)"/><path class="a" d="M288.763,433.773H264.071a.778.778,0,1,0,0,1.556h24.692a.778.778,0,1,0,0-1.556Zm0,0" transform="translate(-242.641 -405.17)"/><path class="a" d="M252.493,298.578H222.858a4.531,4.531,0,0,0-4.526,4.526v18.635a4.531,4.531,0,0,0,4.526,4.526h20.771a.719.719,0,0,1,.566.274l6.708,8.492a1.335,1.335,0,0,0,1.054.517,1.383,1.383,0,0,0,.453-.077,1.338,1.338,0,0,0,.91-1.279v-8a4.547,4.547,0,0,0,3.7-4.449V303.1a4.531,4.531,0,0,0-4.525-4.526Zm2.969,23.161a2.98,2.98,0,0,1-2.931,2.968.779.779,0,0,0-.768.778v8.124l-6.346-8.035a2.265,2.265,0,0,0-1.787-.866H222.858a2.973,2.973,0,0,1-2.97-2.97V303.1a2.973,2.973,0,0,1,2.97-2.97h29.635a2.973,2.973,0,0,1,2.969,2.97Zm0,0" transform="translate(-203.9 -288.677)"/><path class="a" d="M125.464,249.768a2.074,2.074,0,0,0-1.342.771l-5.345,6.767v-6.782a.778.778,0,0,0-.768-.778,2.493,2.493,0,0,1-2.452-2.483V231.041a2.487,2.487,0,0,1,2.484-2.485h25.8a2.487,2.487,0,0,1,2.484,2.485v3a.778.778,0,1,0,1.556,0v-3a4.045,4.045,0,0,0-4.04-4.041h-25.8a4.045,4.045,0,0,0-4.04,4.041v16.222a4.059,4.059,0,0,0,3.22,3.955V258.1a1.265,1.265,0,0,0,.86,1.209,1.306,1.306,0,0,0,.428.073,1.264,1.264,0,0,0,1-.488l5.839-7.393a.527.527,0,0,1,.34-.2.778.778,0,0,0-.219-1.541Zm0,0" transform="translate(-114 -227)"/></svg>