<svg xmlns="http://www.w3.org/2000/svg" width="46.362" height="27.695" viewBox="0 0 46.362 27.695"><defs><style>.a{fill:#fff;}</style></defs><circle class="a" cx="3.471" cy="3.471" r="3.471" transform="translate(0.156 19.709)"/><circle class="a" cx="3.471" cy="3.471" r="3.471" transform="translate(25.611 17.395)"/><path class="a" d="M43.338,8a3.868,3.868,0,0,0-3.813,3.905,3.942,3.942,0,0,0,.609,2.1L30.9,25.245a3.693,3.693,0,0,0-1.542-.342,3.757,3.757,0,0,0-2.7,1.163L18.7,21.312a3.979,3.979,0,0,0,0-.7,3.914,3.914,0,0,0-1.32-2.714,3.767,3.767,0,0,0-2.77-.923A3.877,3.877,0,0,0,11.147,21.1a3.923,3.923,0,0,0,.748,2.077L6.753,28.448a3.693,3.693,0,0,0-1.948-.563,3.905,3.905,0,1,0,0,7.81A3.868,3.868,0,0,0,8.618,31.79a3.933,3.933,0,0,0-.563-2.022l5.234-5.4a3.693,3.693,0,0,0,1.634.4h.249a3.776,3.776,0,0,0,2.871-1.689l7.7,4.616a3.933,3.933,0,0,0-.185,1.145,3.813,3.813,0,0,0,7.625,0,3.924,3.924,0,0,0-.831-2.409l9.112-11.078a3.693,3.693,0,0,0,1.846.526A3.937,3.937,0,0,0,43.338,8ZM4.805,33.849A2.059,2.059,0,1,1,6.864,31.79,2.059,2.059,0,0,1,4.805,33.849Zm10.238-10.94a1.911,1.911,0,0,1-1.385-.48,2.077,2.077,0,0,1-.665-1.44A2.031,2.031,0,0,1,14.84,18.8h.129a1.9,1.9,0,0,1,1.265.48,2.077,2.077,0,0,1,.7,1.44,2.031,2.031,0,0,1-1.893,2.188Zm14.328,7.958a2.059,2.059,0,1,1,1.966-2.059,2.022,2.022,0,0,1-1.966,2.059Zm13.968-16.9A2.059,2.059,0,1,1,45.3,11.905a2.013,2.013,0,0,1-1.966,2.059Z" transform="translate(-0.9 -8)"/></svg>