<svg xmlns="http://www.w3.org/2000/svg" width="33.661" height="45.902" viewBox="0 0 33.661 45.902"><defs><style>.a{fill:#fff;}</style></defs><path class="a" d="M113.655,24.415a.765.765,0,0,0-.217-.541l-7.65-7.65a.755.755,0,0,0-.541-.217V16H82.3A2.3,2.3,0,0,0,80,18.3V59.607a2.3,2.3,0,0,0,2.3,2.3h29.071a2.3,2.3,0,0,0,2.3-2.3V24.415Zm-7.643-5.8,5.038,5.038h-4.273a.765.765,0,0,1-.765-.765Zm5.355,41.76H82.3a.765.765,0,0,1-.765-.765V18.3a.765.765,0,0,1,.765-.765h22.186v5.355a2.3,2.3,0,0,0,2.3,2.3h5.355V59.607A.765.765,0,0,1,111.366,60.372Z" transform="translate(-80 -16)"/><path class="a" d="M138.3,232a2.3,2.3,0,1,0,2.3,2.3A2.3,2.3,0,0,0,138.3,232Zm0,3.06a.765.765,0,1,1,.765-.765A.765.765,0,0,1,138.3,235.06Z" transform="translate(-130.645 -211.344)"/><rect class="a" width="15" transform="translate(14 23)"/><path class="a" d="M138.3,152a2.3,2.3,0,1,0,2.3,2.3A2.3,2.3,0,0,0,138.3,152Zm0,3.06a.765.765,0,1,1,.765-.765A.765.765,0,0,1,138.3,155.06Z" transform="translate(-130.645 -138.994)"/><rect class="a" width="15" height="2" transform="translate(14 14)"/><path class="a" d="M138.3,312a2.3,2.3,0,1,0,2.3,2.3A2.3,2.3,0,0,0,138.3,312Zm0,3.06a.765.765,0,1,1,.765-.765A.765.765,0,0,1,138.3,315.06Z" transform="translate(-130.645 -283.694)"/><rect class="a" width="15" height="1" transform="translate(14 30)"/><path class="a" d="M138.3,392a2.3,2.3,0,1,0,2.3,2.3A2.3,2.3,0,0,0,138.3,392Zm0,3.06a.765.765,0,1,1,.765-.765A.765.765,0,0,1,138.3,395.06Z" transform="translate(-130.645 -356.044)"/><rect class="a" width="15" transform="translate(14 38)"/></svg>