<svg xmlns="http://www.w3.org/2000/svg" xmlns:xlink="http://www.w3.org/1999/xlink" width="51.078" height="40.839" viewBox="0 0 51.078 40.839"><defs><style>.a{fill:#ffffff;}.b{clip-path:url(#a);}</style><clipPath id="a"><path class="icont" d="M12.273,38.248a19.876,19.876,0,1,1,7.6,1.514A19.879,19.879,0,0,1,12.273,38.248ZM2.84,19.881A17.041,17.041,0,1,0,19.881,2.84,17.041,17.041,0,0,0,2.84,19.881Z"/></clipPath></defs><path class="a" d="M232.5,218.16v1.606h2.84V218.16a4.053,4.053,0,0,0,.6-7.492l-2.769-1.385a1.213,1.213,0,0,1,.542-2.3h.414a1.215,1.215,0,0,1,1.213,1.213v.207h2.84V208.2a4.062,4.062,0,0,0-2.84-3.867v-1.606H232.5v1.606a4.053,4.053,0,0,0-.6,7.492l2.769,1.385a1.212,1.212,0,0,1-.542,2.3h-.414a1.215,1.215,0,0,1-1.213-1.213v-.207h-2.84v.207a4.061,4.061,0,0,0,2.84,3.867Zm0,0" transform="translate(-208.402 -190.573)"/><g transform="translate(5.637 0.791)"><g class="b" transform="translate(0 0)"><g transform="translate(0 0)"><rect class="a" width="39.761" height="39.761"/></g></g></g><g transform="translate(32.617 19.252)"><rect class="a" width="2.84" height="2.84" transform="translate(0 0)"/></g><g transform="translate(15.577 19.252)"><rect class="a" width="2.84" height="2.84" transform="translate(0 0)"/></g><path class="a" d="M336.1,348.355l1.746,2.239a25.591,25.591,0,0,0,2.337-2.062l-2-2.012a23.039,23.039,0,0,1-2.079,1.834Zm0,0" transform="translate(-296.62 -309.755)"/><path class="a" d="M366.428,208.585l-2.716.834a22.771,22.771,0,0,1-3.662,20.472l2.256,1.725a25.613,25.613,0,0,0,4.123-23.031Zm0,0" transform="translate(-316.474 -195.43)"/><path class="a" d="M117.627,134.029l-1.673-2.3a25.472,25.472,0,0,0-10.48,19.171l2.835.165a22.639,22.639,0,0,1,9.318-17.04Zm0,0" transform="translate(-105.474 -131.734)"/></svg>