<svg xmlns="http://www.w3.org/2000/svg" width="20.878" height="18.027" viewBox="0 0 20.878 18.027">
  <g id="Grupo_2277" data-name="Grupo 2277" transform="translate(-135 -204)">
    <path id="Caminho_2127" data-name="Caminho 2127" d="M155.878,205.832A1.834,1.834,0,0,0,154.046,204H136.832a1.832,1.832,0,0,0-.03,3.663l6.567,8.524v5.381a.459.459,0,0,0,.631.425l3.224-1.312a.459.459,0,0,0,.285-.425v-4.069l6.567-8.524a1.834,1.834,0,0,0,1.8-1.831Zm-9.285,14.116-2.308.939v-4.4h2.308Zm7.453-13.2H147.51a.458.458,0,1,0,0,.916h5.409l-6.094,7.91h-2.773l-6.094-7.91h5.409a.458.458,0,0,0,0-.916h-6.536a.915.915,0,0,1,0-1.83h17.214a.915.915,0,0,1,0,1.83Zm0,0" transform="translate(0)" fill="#97a3b5"/>
    <path id="Caminho_2128" data-name="Caminho 2128" d="M299.221,249.054a.458.458,0,1,0,.174.543.462.462,0,0,0-.174-.543Zm0,0" transform="translate(-153.52 -42.23)" fill="#97a3b5"/>
  </g>
</svg>
