<svg xmlns="http://www.w3.org/2000/svg" width="38.661" height="38.661" viewBox="0 0 38.661 38.661"><defs><style>.a{fill:#fff;}</style></defs><path class="a" d="M138.488,216.459,144.151,204h-9.2l-1.558,3.382L131.875,204H122.51l5.663,12.459H114v26.2h38.661v-26.2ZM136.4,206.265h4.236L136,216.459h-4.3Zm-5.99,0,1.723,3.849-2.191,4.755-3.911-8.6ZM150.4,240.4H116.265V218.725H150.4Zm0,0" transform="translate(-114 -204)"/><rect class="a" width="10.949" height="2.265" transform="translate(22.427 18.5)"/><rect class="a" width="10.949" height="2.265" transform="translate(22.427 24.579)"/><rect class="a" width="10.949" height="2.265" transform="translate(22.427 30.657)"/><path class="a" d="M170.306,394.831a3.964,3.964,0,1,0-4.889,0,5.984,5.984,0,0,0-4.917,6v1.344h14.725v-1.344a5.982,5.982,0,0,0-4.918-6Zm-2.446-4.816a1.7,1.7,0,1,1-1.7,1.7,1.7,1.7,0,0,1,1.7-1.7Zm-5.006,9.892c.588-2.856,3.919-3.1,5.008-3.1s4.419.24,5.008,3.1Zm0,0" transform="translate(-155.818 -369.25)"/></svg>