<svg xmlns="http://www.w3.org/2000/svg" width="72" height="40" viewBox="0 0 72 40"><rect width="72" height="40" rx="4" fill="#f0f3f8"/><g transform="translate(18.198 8.662)"><rect width="9.554" height="17.166" transform="translate(12.89 2.335)" fill="#ff5f00"/><path d="M2912.231,2250.42a10.947,10.947,0,0,1,4.155-8.583,10.918,10.918,0,1,0,0,17.166A10.9,10.9,0,0,1,2912.231,2250.42Z" transform="translate(-2898.734 -2239.502)" fill="#eb001b"/><path d="M3416.819,2250.42a10.907,10.907,0,0,1-17.651,8.583,10.943,10.943,0,0,0,0-17.166,10.907,10.907,0,0,1,17.651,8.583Z" transform="translate(-3381.486 -2239.502)" fill="#f79e1b"/></g></svg>