<svg xmlns="http://www.w3.org/2000/svg" width="180.508" height="45.203" viewBox="0 0 180.508 45.203"><g transform="translate(-141.066 -3261.081)"><path d="M72.293,23.58v-.1c0-7.676,5.468-14,13.3-14,8.98,0,12.944,7.375,12.944,12.944a3.479,3.479,0,0,1-3.562,3.663h-15.1a6.237,6.237,0,0,0,6.573,5.268A8.8,8.8,0,0,0,91.86,29.55a2.846,2.846,0,0,1,1.856-.6,2.915,2.915,0,0,1,2.961,3.01,2.994,2.994,0,0,1-1,2.258,13.934,13.934,0,0,1-9.332,3.261C78.263,37.478,72.293,31.808,72.293,23.58Zm7.476-2.257H91.258c-.452-3.412-2.458-5.72-5.669-5.72C82.427,15.6,80.37,17.861,79.768,21.323Zm-28.3,12.994a3.039,3.039,0,0,1-1.455-2.609A3.013,3.013,0,0,1,54.533,29.1a14.16,14.16,0,0,0,7.275,2.409c2.207,0,3.211-.8,3.211-2.007v-.1c0-1.655-2.609-2.207-5.569-3.111-3.763-1.1-8.027-2.859-8.027-8.077v-.1c0-5.469,4.415-8.529,9.834-8.529a18.909,18.909,0,0,1,8.329,2.057,3.106,3.106,0,0,1,1.806,2.86,3,3,0,0,1-3.06,3.011,2.788,2.788,0,0,1-1.4-.351,14.343,14.343,0,0,0-5.82-1.706c-1.856,0-2.809.8-2.809,1.856v.1c0,1.506,2.559,2.208,5.469,3.211,3.763,1.254,8.127,3.061,8.127,7.978v.1c0,5.97-4.465,8.679-10.285,8.679A18.739,18.739,0,0,1,51.473,34.317ZM28.2,37.377a4.2,4.2,0,0,1-4.114-3.261L19.818,20.569,15.5,34.116a4.2,4.2,0,0,1-4.114,3.261h-.251c-1.856,0-3.411-1.054-4.214-3.411L.351,15A6.436,6.436,0,0,1,0,13.145,3.516,3.516,0,0,1,3.662,9.683a3.8,3.8,0,0,1,3.713,2.96l4.114,13.646,4.214-13.6a4.024,4.024,0,0,1,3.913-3.061h.452a4.024,4.024,0,0,1,3.913,3.061l4.264,13.646L32.46,12.593a3.734,3.734,0,0,1,3.662-2.91,3.471,3.471,0,0,1,3.562,3.512,6.715,6.715,0,0,1-.251,1.555L32.661,33.965c-.8,2.358-2.358,3.411-4.214,3.411Zm12.943-4.013V13.5a3.813,3.813,0,0,1,7.626,0V33.363a3.813,3.813,0,0,1-7.626,0Zm-.452-29.7v-.1C40.687,1.354,42.544,0,44.952,0s4.265,1.354,4.265,3.562v.1c0,2.207-1.857,3.612-4.265,3.612S40.687,5.87,40.687,3.662Z" transform="translate(141.066 3261.081)" fill="#fff"/><path d="M0,31.909V4.014a3.813,3.813,0,0,1,7.626,0v.351A9.876,9.876,0,0,1,16,0c6.271,0,12.242,4.917,12.242,13.9V14c0,8.981-5.87,13.9-12.242,13.9a10.327,10.327,0,0,1-8.379-4.013v8.027a3.813,3.813,0,0,1-7.626,0ZM7.526,13.9V14c0,4.465,2.96,7.425,6.522,7.425S20.62,18.513,20.62,14v-.1c0-4.465-3.01-7.425-6.572-7.425S7.526,9.432,7.526,13.9ZM56.941,34.869a3.3,3.3,0,0,1-2.408-3.161,3.042,3.042,0,0,1,3.01-3.111,3.6,3.6,0,0,1,1.254.2,4.993,4.993,0,0,0,1.606.3,2.486,2.486,0,0,0,2.709-1.606l.251-.6L54.182,5.619a5.555,5.555,0,0,1-.4-1.756A3.613,3.613,0,0,1,57.543.2c1.907,0,3.01,1.054,3.663,2.86l5.82,15.653,5.619-15.6C73.247,1.5,74.351.2,76.307.2A3.544,3.544,0,0,1,79.92,3.713a5.757,5.757,0,0,1-.351,1.806L70.187,28.045c-2.258,5.468-4.516,7.526-9.081,7.526A11.474,11.474,0,0,1,56.941,34.869ZM28.5,19.667v-.1c0-5.87,4.465-8.579,10.837-8.579a19.1,19.1,0,0,1,6.572,1.1V11.64c0-3.161-1.957-4.917-5.77-4.917a17.489,17.489,0,0,0-5.268.752,3.229,3.229,0,0,1-1.1.2A3.106,3.106,0,0,1,30.6,4.565a3.161,3.161,0,0,1,2.057-2.96A23.4,23.4,0,0,1,41.239.2c4.164,0,7.175,1.1,9.081,3.01,2.007,2.007,2.91,4.967,2.91,8.579V24.032a3.662,3.662,0,0,1-3.713,3.662,3.414,3.414,0,0,1-3.662-3.161v-.05a10.34,10.34,0,0,1-8.128,3.411C32.66,27.895,28.5,24.985,28.5,19.667Zm7.375-.4v.1c0,2.057,1.706,3.261,4.164,3.261,3.562,0,5.97-1.957,5.97-4.716V16.557a11.824,11.824,0,0,0-4.867-1C37.877,15.553,35.871,16.857,35.871,19.265Z" transform="translate(241.654 3270.563)" fill="#fff"/></g></svg>