<svg xmlns="http://www.w3.org/2000/svg" width="77.955" height="63.212" viewBox="0 0 77.955 63.212"><g transform="translate(-280.327 -2944.253)"><g transform="translate(281.588 2983.347)"><path d="M151.392,351.539a18.137,18.137,0,0,1-2.314-.465,13.821,13.821,0,0,1-4.369-2.01,11.955,11.955,0,0,1-4.7-6.737,10.94,10.94,0,0,1,2.021-4.9,6.543,6.543,0,0,1,2.555-1.693,6.264,6.264,0,0,1,.739-.216,5.951,5.951,0,0,1,1.216-.15,5.205,5.205,0,0,1,.6.028l.049.006a1.871,1.871,0,0,1,1.394.614,1.692,1.692,0,0,1-.2,1.924c-.026.044-.051.082-.068.114-.18.363-.361.756-.534,1.163-.251.591-.49,1.223-.726,1.919-.055.167-.112.34-.169.517s-.1.34-.148.515a13.007,13.007,0,0,0-.331,3.966,5.65,5.65,0,0,0,1.05,3.4,4.387,4.387,0,0,0,.393.424c.034.034.07.066.1.1s.085.076.129.114c.025.021.051.04.076.061s.068.055.1.08a5.812,5.812,0,0,0,1.269.725c.048.019.093.038.141.055.1.04.2.076.295.108.048.017.1.032.144.047.063.021.123.04.184.057.082.025.163.046.241.066C150.845,351.444,151.133,351.5,151.392,351.539Z" transform="translate(-140.006 -335.365)" fill="#fff"/><path d="M192.36,408.369l.036,0v0c-.071-.008-.141-.019-.211-.028Z" transform="translate(-180.602 -392.147)" fill="#fff"/><path d="M191.774,408.293l.091.012Z" transform="translate(-180.282 -392.104)" fill="#fff"/></g><g transform="translate(288.444 2944.253)"><path d="M170.95,171.866c-.036.441-.055.891-.055,1.345v0c0,.055,0,.11,0,.165a7.688,7.688,0,0,1,.146-1.313C171.011,172,170.98,171.934,170.95,171.866Zm6.244-12.36a22.6,22.6,0,0,1,3,.087c.1.01.209.021.313.032.34-.131.684-.255,1.039-.369A28.758,28.758,0,0,0,177.194,159.506Z" transform="translate(-170.895 -159.253)" fill="#fff"/><path d="M239.278,199.182v.021c0,.456-.019.906-.053,1.349a13.727,13.727,0,0,1-1.977,6.23,12.583,12.583,0,0,1-3.035,3.263c-.034.032-.068.063-.1.093a14.429,14.429,0,0,1-3.328,2.167,5.309,5.309,0,0,0,1.3-1.369,5.562,5.562,0,0,0,.522-1.022v0a9.012,9.012,0,0,0-.027-3.89,21.27,21.27,0,0,0-1.565-4.579,38.534,38.534,0,0,0-5.966-8.779c-.967-1.105-1.92-2.116-2.8-3.015-1.121-1.136-2-1.987-2.84-2.756l-.467-.426c-6.72-6.054-17.3-13.817-30.3-17.354a39.428,39.428,0,0,0-6.6-1.282,19.348,19.348,0,0,0-5.807.255,7.023,7.023,0,0,0-4.418,2.724,5.441,5.441,0,0,0-.522,1.022v0c-.021.084-.038.165-.055.249-.032-.066-.063-.133-.093-.2a13.7,13.7,0,0,1,1.977-6.234,12.507,12.507,0,0,1,3.035-3.263c.034-.032.068-.063.1-.093a14.773,14.773,0,0,1,4.428-2.642l.019-.008c.34-.131.684-.255,1.039-.369a38.831,38.831,0,0,1,4.659.37c13.439,1.842,25.083,8.985,32.485,14.651q2.322,1.775,4.437,3.628a73.418,73.418,0,0,1,6.329,6.229,61.4,61.4,0,0,1,4.654,5.847A42.752,42.752,0,0,1,239.278,199.182Z" transform="translate(-171.088 -159.266)" fill="#fff"/></g><g transform="translate(281.122 2945.165)"><path d="M203.8,187.331a44.869,44.869,0,0,1-2.167,4.492q-1.114,2.023-2.443,4.021a70.623,70.623,0,0,1-10.253,12.027,83.353,83.353,0,0,1-6.5,5.581,71.051,71.051,0,0,1-9.14,6.025,53.97,53.97,0,0,1-12.945,5.163,31.84,31.84,0,0,1-7.634,1.018,21.241,21.241,0,0,1-3.852-.336q-.738-.137-1.442-.329a13.819,13.819,0,0,1-4.369-2.01,11.922,11.922,0,0,1-4.479-6,12.809,12.809,0,0,1-.49-1.956,18.986,18.986,0,0,1,.266-6.57,11.956,11.956,0,0,0,4.7,6.738,13.82,13.82,0,0,0,4.369,2.01c.11.03.222.059.334.087.131.032.264.065.4.093.049.011.1.023.146.032.114.025.228.049.342.07.061.013.123.025.186.036.161.03.327.059.492.083q.208.034.416.063s0,0,0,0l.015,0,.087.011a.488.488,0,0,1,.053.008.276.276,0,0,1,.038,0c.025,0,.049.008.072.01l.1.011.036,0c.289.029.579.049.87.059.205.008.408.011.614.011.135,0,.27,0,.406-.008.112,0,.222-.006.332-.011.084,0,.169-.008.253-.013.247-.015.494-.034.741-.061q.108-.009.216-.023.547-.06,1.087-.152c.1-.017.205-.034.306-.053s.22-.04.331-.061c.165-.032.331-.066.494-.1.781-.167,1.541-.368,2.268-.587l.391-.12.07-.023c.152-.048.3-.1.452-.144.216-.07.427-.143.634-.215.186-.065.37-.131.549-.2.45-.162.877-.325,1.276-.481q1.473-.576,2.887-1.225a62.065,62.065,0,0,0,9.216-5.252,80.3,80.3,0,0,0,14.527-12.976c.7-.8,1.43-1.668,2.352-2.83.84-1.066,1.759-2.281,2.665-3.613a34.151,34.151,0,0,0,4.386-8.546c.114-.35.216-.7.311-1.054,0,0,0-.006,0-.009a18.406,18.406,0,0,0,.537-2.887,9.537,9.537,0,0,0,.038-1.449,6.956,6.956,0,0,0-.758-2.809c-.038-.074-.078-.148-.121-.222a5,5,0,0,0-2.374-2.2,7.711,7.711,0,0,0-3.419-.38,21.228,21.228,0,0,1-4.192-.262,13.948,13.948,0,0,1-3.121-.747c-.028-.012-2.642-1.083-2.98-2.272a1.151,1.151,0,0,1,.184-1.022.917.917,0,0,1,.456-.329l.066-.034a2.023,2.023,0,0,1,.2-.093c.167-.061.331-.121.5-.178.349-.125.7-.245,1.052-.359a31.222,31.222,0,0,1,3.938-1.026,20.508,20.508,0,0,1,7.691-.083c.475.089.942.2,1.4.329a11.934,11.934,0,0,1,8.848,9.22,15.1,15.1,0,0,1,.3,1.793v0A25.919,25.919,0,0,1,203.8,187.331Z" transform="translate(-137.909 -163.36)" fill="#fff"/></g><g transform="translate(324.558 2945.572)"><path d="M333.628,168.233a1.151,1.151,0,0,1,.184-1.022.917.917,0,0,1,.456-.329l.066-.034a1.984,1.984,0,0,1,.2-.093c.167-.061.331-.121.5-.178.349-.125.7-.245,1.052-.359a31.226,31.226,0,0,1,3.938-1.026c.332.07.661.152.982.245a12.68,12.68,0,0,1,6.506,4.179,12.36,12.36,0,0,1,2.2,4.479,5,5,0,0,0-2.374-2.2,7.714,7.714,0,0,0-3.419-.38,21.213,21.213,0,0,1-4.192-.262,13.935,13.935,0,0,1-3.121-.746C336.58,170.493,333.966,169.422,333.628,168.233Z" transform="translate(-333.581 -165.192)" fill="#fff"/></g><g transform="translate(297.898 2957.326)"><path d="M230.323,223.235c-.074.7-.71,1.159-1.472,1.647-.08.051-.148.093-.188.123-.631.481-1.263.973-1.882,1.465-1.271,1.008-2.538,2.055-3.767,3.111-1.117.957-2.23,1.951-3.311,2.948-.139.127-.294.289-.46.46-.731.752-1.719,1.772-3.018,1.772-.061,0-.124,0-.186-.006a2.98,2.98,0,0,1-2.374-1.592,3.038,3.038,0,0,1,.287-2.534l.028-.066c1.508-3.356,3.93-8.2,7.553-11.517a2.9,2.9,0,0,1,1.82-.9c.034,0,.063,0,.1,0a2.265,2.265,0,0,1,.965.23,4.867,4.867,0,0,1,.716.437c.074.051.146.1.218.15.226.146.465.281.718.424.232.129.469.264.708.414a17.5,17.5,0,0,1,3.218,2.494A1.153,1.153,0,0,1,230.323,223.235Z" transform="translate(-213.483 -218.142)" fill="#fff"/></g><g transform="translate(280.327 2944.253)"><path d="M170.95,171.866c-.036.441-.055.891-.055,1.345v0c0,.055,0,.11,0,.165a7.688,7.688,0,0,1,.146-1.313C171.011,172,170.98,171.934,170.95,171.866Zm6.244-12.36a22.6,22.6,0,0,1,3,.087c.1.01.209.021.313.032.34-.131.684-.255,1.039-.369A28.758,28.758,0,0,0,177.194,159.506Z" transform="translate(-162.778 -159.253)" fill="#fff"/><path d="M339.1,347.313v0a14.192,14.192,0,0,1-2.031,7.579,12.579,12.579,0,0,1-3.035,3.263c-.034.032-.068.063-.1.093a14.767,14.767,0,0,1-4.426,2.64c-.346.135-.7.262-1.058.378a24.635,24.635,0,0,1-7.606,1.1,38.071,38.071,0,0,1-5.174-.374,60.605,60.605,0,0,1-18.338-5.809,71.044,71.044,0,0,0,9.14-6.025,60.961,60.961,0,0,0,6.964,2.363,32.514,32.514,0,0,0,9.625,1.366,16.254,16.254,0,0,0,2.781-.338,8.789,8.789,0,0,0,2.314-.842,6.369,6.369,0,0,0,.8-.513,14.429,14.429,0,0,0,3.328-2.167c.036-.03.07-.061.1-.093a12.583,12.583,0,0,0,3.035-3.263,13.726,13.726,0,0,0,1.977-6.23c.034-.442.053-.893.053-1.349v-.021a24.862,24.862,0,0,1,1.592,6.846q.048.61.053,1.223v0C339.1,347.2,339.1,347.258,339.1,347.313Z" transform="translate(-261.144 -299.156)" fill="#fff"/><path d="M170.754,206.7a62.062,62.062,0,0,1-9.216,5.252c-1.9-1.25-3.628-2.5-5.174-3.683a71.775,71.775,0,0,1-15.418-15.7c-3.013-4.3-6.6-10.818-6.618-17.411v-.021a14.2,14.2,0,0,1,2.032-7.579,12.537,12.537,0,0,1,3.034-3.263l.1-.093a14.482,14.482,0,0,1,3.33-2.171q.533-.254,1.1-.471a21.031,21.031,0,0,1,4.819-1.221,22.564,22.564,0,0,1,3,.087c.1.01.209.021.313.032l-.019.008a14.769,14.769,0,0,0-4.428,2.642c-.034.03-.068.061-.1.093a12.515,12.515,0,0,0-3.035,3.263A13.7,13.7,0,0,0,142.5,172.7c-.036.441-.055.891-.055,1.345v0c0,.055,0,.11,0,.165v0a9.4,9.4,0,0,0,.053,1.22,10.967,10.967,0,0,0,.175,1.107c1.4,6.62,6.565,12.516,10.331,16.373,1.119,1.136,1.995,1.987,2.84,2.756A87.784,87.784,0,0,0,170.754,206.7Z" transform="translate(-134.327 -160.083)" fill="#fff"/></g><g transform="translate(310.576 2994.374)"><path d="M270.6,385.288c.154-.082.306-.163.458-.247-.078.044-.154.085-.232.127Z" transform="translate(-270.596 -385.041)" fill="#fff"/></g><g transform="translate(310.576 2994.374)"><path d="M270.6,385.288c.154-.082.306-.163.458-.247-.078.044-.154.085-.232.127Z" transform="translate(-270.596 -385.041)" fill="#fff"/></g></g></svg>