<svg xmlns="http://www.w3.org/2000/svg" width="72" height="40" viewBox="0 0 72 40"><rect width="72" height="40" rx="4" fill="#f0f3f8"/><g transform="translate(11.612 11.612)"><path d="M437.4,125.772h-3.89l2.433-15.046h3.89Z" transform="translate(-416.587 -110.454)" fill="#00579f"/><path d="M576.849,105.688a9.588,9.588,0,0,0-3.489-.641c-3.842,0-6.547,2.049-6.564,4.978-.032,2.161,1.937,3.361,3.41,4.082,1.505.736,2.017,1.217,2.017,1.873-.015,1.008-1.216,1.473-2.336,1.473a7.743,7.743,0,0,1-3.65-.8l-.512-.24-.544,3.377a11.84,11.84,0,0,0,4.339.8c4.082,0,6.74-2.017,6.771-5.138.016-1.713-1.024-3.025-3.265-4.1-1.361-.688-2.194-1.153-2.194-1.857.016-.64.7-1.3,2.241-1.3a6.61,6.61,0,0,1,2.9.576l.352.16.529-3.249Z" transform="translate(-541.935 -105.048)" fill="#00579f"/><path d="M796.541,120.442c.32-.864,1.553-4.21,1.553-4.21-.016.032.32-.88.512-1.44l.272,1.3s.737,3.6.9,4.354Zm4.8-9.715h-3.009a1.92,1.92,0,0,0-2.033,1.248l-5.779,13.8H794.6l.816-2.257h4.995c.112.528.464,2.257.464,2.257h3.6l-3.138-15.045Z" transform="translate(-756.457 -110.454)" fill="#00579f"/><path d="M175.44,110.727l-3.81,10.26-.416-2.081a11.516,11.516,0,0,0-5.379-6.307l3.49,13.157h4.114l6.115-15.03Z" transform="translate(-161.77 -110.454)" fill="#00579f"/><path d="M87.489,110.727H81.23l-.064.3c4.883,1.249,8.116,4.258,9.445,7.876l-1.361-6.915a1.61,1.61,0,0,0-1.761-1.265Z" transform="translate(-81.166 -110.454)" fill="#faa61a"/></g></svg>